<svg width="16" height="3" viewBox="0 0 16 3" fill="none" xmlns="http://www.w3.org/2000/svg">
<path d="M0.53552 1.35177C0.53552 0.955769 0.64552 0.647769 0.86552 0.427769C1.10019 0.193103 1.40819 0.0757695 1.78952 0.0757695C2.18552 0.0757695 2.50085 0.193103 2.73552 0.427769C2.97019 0.647769 3.08752 0.955769 3.08752 1.35177C3.08752 1.7331 2.97019 2.0411 2.73552 2.27577C2.50085 2.51044 2.18552 2.62777 1.78952 2.62777C1.40819 2.62777 1.10019 2.51044 0.86552 2.27577C0.64552 2.0411 0.53552 1.7331 0.53552 1.35177ZM6.68005 1.35177C6.68005 0.955769 6.79005 0.647769 7.01005 0.427769C7.24472 0.193103 7.55272 0.0757695 7.93405 0.0757695C8.33005 0.0757695 8.64538 0.193103 8.88005 0.427769C9.11472 0.647769 9.23205 0.955769 9.23205 1.35177C9.23205 1.7331 9.11472 2.0411 8.88005 2.27577C8.64538 2.51044 8.33005 2.62777 7.93405 2.62777C7.55272 2.62777 7.24472 2.51044 7.01005 2.27577C6.79005 2.0411 6.68005 1.7331 6.68005 1.35177ZM12.8246 1.35177C12.8246 0.955769 12.9346 0.647769 13.1546 0.427769C13.3892 0.193103 13.6972 0.0757695 14.0786 0.0757695C14.4746 0.0757695 14.7899 0.193103 15.0246 0.427769C15.2592 0.647769 15.3766 0.955769 15.3766 1.35177C15.3766 1.7331 15.2592 2.0411 15.0246 2.27577C14.7899 2.51044 14.4746 2.62777 14.0786 2.62777C13.6972 2.62777 13.3892 2.51044 13.1546 2.27577C12.9346 2.0411 12.8246 1.7331 12.8246 1.35177Z" fill="black"/>
</svg>
